name analog
datacolumns 19
datarows 29
range 0.1475 0.1615
endheader
time	ground_force_vx	ground_force_vy	ground_force_vz	ground_force_px	ground_force_py	ground_force_pz	l_ground_force_vx	l_ground_force_vy	l_ground_force_vz	l_ground_force_px	l_ground_force_py	l_ground_force_pz	ground_torque_x	ground_torque_y	ground_torque_z	l_ground_torque_x	l_ground_torque_y	l_ground_torque_z
0.1475	-0.0	-0.0	-0.0	-0.8921051025390625	5.728577613830566	-788.5010375976562	-0.0	-0.0	-0.0	-0.0	-0.0	-0.0	-0.0	-0.0	-0.0	-0.0	-0.0	-0.0
0.148	-0.0	-0.0	-0.0	-1.579432487487793	5.627774715423584	-779.2192993164062	-0.0	-0.0	-0.0	-0.0	-0.0	-0.0	-0.0	-0.0	-0.0	-0.0	-0.0	-0.0
0.1485	-0.0	-0.0	-0.0	-2.790619373321533	5.780940532684326	-771.8030395507812	-0.0	-0.0	-0.0	-0.0	-0.0	-0.0	-0.0	-0.0	-0.0	-0.0	-0.0	-0.0
0.149	-0.0	-0.0	-0.0	-5.465202331542969	5.435301303863525	-764.6972045898438	-0.0	-0.0	-0.0	-0.0	-0.0	-0.0	-0.0	-0.0	-0.0	-0.0	-0.0	-0.0
0.1495	-0.0	-0.0	-0.0	-8.929667472839355	5.681354522705078	-761.9649047851562	-0.0	-0.0	-0.0	-0.0	-0.0	-0.0	-0.0	-0.0	-0.0	-0.0	-0.0	-0.0
0.15	-0.0	-0.0	-0.0	-14.576579093933104	4.037816047668457	-762.154052734375	-0.0	-0.0	-0.0	-0.0	-0.0	-0.0	-0.0	-0.0	-0.0	-0.0	-0.0	-0.0
0.1505	-0.0	-0.0	-0.0	-18.99949073791504	2.153873920440674	-766.9501953125	-0.0	-0.0	-0.0	-0.0	-0.0	-0.0	-0.0	-0.0	-0.0	-0.0	-0.0	-0.0
0.151	-0.0	-0.0	-0.0	-21.91842460632324	-1.629064917564392	-774.6111450195312	-0.0	-0.0	-0.0	-0.0	-0.0	-0.0	-0.0	-0.0	-0.0	-0.0	-0.0	-0.0
0.1515	-0.0	-0.0	-0.0	-22.76102828979492	-5.372498512268066	-786.3252563476562	-0.0	-0.0	-0.0	-0.0	-0.0	-0.0	-0.0	-0.0	-0.0	-0.0	-0.0	-0.0
0.152	-0.0	-0.0	-0.0	-21.7058162689209	-8.909998893737793	-797.163818359375	-0.0	-0.0	-0.0	-0.0	-0.0	-0.0	-0.0	-0.0	-0.0	-0.0	-0.0	-0.0
0.1525	-0.0	-0.0	-0.0	-18.466575622558597	-11.494508743286133	-807.0030517578125	-0.0	-0.0	-0.0	-0.0	-0.0	-0.0	-0.0	-0.0	-0.0	-0.0	-0.0	-0.0
0.153	-0.0	-0.0	-0.0	-15.184968948364258	-13.657964706420898	-815.1392822265625	-0.0	-0.0	-0.0	-0.0	-0.0	-0.0	-0.0	-0.0	-0.0	-0.0	-0.0	-0.0
0.1535	-0.0	-0.0	-0.0	-11.56447410583496	-14.823780059814451	-817.3551025390625	-0.0	-0.0	-0.0	-0.0	-0.0	-0.0	-0.0	-0.0	-0.0	-0.0	-0.0	-0.0
0.154	-0.0	-0.0	-0.0	-7.469339847564697	-13.596463203430176	-818.9279174804688	-0.0	-0.0	-0.0	-0.0	-0.0	-0.0	-0.0	-0.0	-0.0	-0.0	-0.0	-0.0
0.1545	-0.0	-0.0	-0.0	-5.916325569152832	-12.376980781555176	-817.2265625	-0.0	-0.0	-0.0	-0.0	-0.0	-0.0	-0.0	-0.0	-0.0	-0.0	-0.0	-0.0
0.155	-0.0	-0.0	-0.0	-2.8470115661621094	-10.059629440307615	-809.24853515625	-0.0	-0.0	-0.0	-0.0	-0.0	-0.0	-0.0	-0.0	-0.0	-0.0	-0.0	-0.0
0.1555	-0.0	-0.0	-0.0	0.2871237397193908	-8.561178207397461	-800.32421875	-0.0	-0.0	-0.0	-0.0	-0.0	-0.0	-0.0	-0.0	-0.0	-0.0	-0.0	-0.0
0.156	-0.0	-0.0	-0.0	3.3248720169067383	-6.732903003692627	-790.7222290039062	-0.0	-0.0	-0.0	-0.0	-0.0	-0.0	-0.0	-0.0	-0.0	-0.0	-0.0	-0.0
0.1565	-0.0	-0.0	-0.0	3.884122610092163	-6.815013408660889	-791.285888671875	-0.0	-0.0	-0.0	-0.0	-0.0	-0.0	-0.0	-0.0	-0.0	-0.0	-0.0	-0.0
0.157	-0.0	-0.0	-0.0	3.282190084457397	-6.233774185180664	-791.4287719726562	-0.0	-0.0	-0.0	-0.0	-0.0	-0.0	-0.0	-0.0	-0.0	-0.0	-0.0	-0.0
0.1575	-0.0	-0.0	-0.0	1.6472398042678833	-6.441247463226318	-792.6080322265625	-0.0	-0.0	-0.0	-0.0	-0.0	-0.0	-0.0	-0.0	-0.0	-0.0	-0.0	-0.0
0.158	-0.0	-0.0	-0.0	-0.2022577971220016	-7.320600509643555	-792.112548828125	-0.0	-0.0	-0.0	-0.0	-0.0	-0.0	-0.0	-0.0	-0.0	-0.0	-0.0	-0.0
0.1585	-0.0	-0.0	-0.0	-2.4860148429870605	-6.952171325683594	-791.3821411132812	-0.0	-0.0	-0.0	-0.0	-0.0	-0.0	-0.0	-0.0	-0.0	-0.0	-0.0	-0.0
0.159	-0.0	-0.0	-0.0	-4.424192905426025	-7.629724502563477	-795.80810546875	-0.0	-0.0	-0.0	-0.0	-0.0	-0.0	-0.0	-0.0	-0.0	-0.0	-0.0	-0.0
0.1595	-0.0	-0.0	-0.0	-7.237870216369629	-7.184137344360352	-799.57373046875	-0.0	-0.0	-0.0	-0.0	-0.0	-0.0	-0.0	-0.0	-0.0	-0.0	-0.0	-0.0
0.16	-0.0	-0.0	-0.0	-8.606298446655273	-8.223536491394043	-810.5213012695312	-0.0	-0.0	-0.0	-0.0	-0.0	-0.0	-0.0	-0.0	-0.0	-0.0	-0.0	-0.0
0.1605	-0.0	-0.0	-0.0	-8.944534301757812	-9.90048885345459	-824.322021484375	-0.0	-0.0	-0.0	-0.0	-0.0	-0.0	-0.0	-0.0	-0.0	-0.0	-0.0	-0.0
0.161	-0.0	-0.0	-0.0	-9.848332405090332	-11.866058349609377	-835.9951171875	-0.0	-0.0	-0.0	-0.0	-0.0	-0.0	-0.0	-0.0	-0.0	-0.0	-0.0	-0.0
0.1615	-0.0	-0.0	-0.0	-10.736039161682127	-13.427940368652344	-853.5772705078125	-0.0	-0.0	-0.0	-0.0	-0.0	-0.0	-0.0	-0.0	-0.0	-0.0	-0.0	-0.0
